<svg width="1200" height="900" viewBox="0 0 1200 900" fill="none" xmlns="http://www.w3.org/2000/svg">
<defs>
<linearGradient id="bg" x1="88" y1="82" x2="1110" y2="820" gradientUnits="userSpaceOnUse">
<stop stop-color="#07111F"/>
<stop offset="0.52" stop-color="#173457"/>
<stop offset="1" stop-color="#0A746D"/>
</linearGradient>
<filter id="blur" x="-150" y="-150" width="1500" height="1200" filterUnits="userSpaceOnUse">
<feGaussianBlur stdDeviation="78"/>
</filter>
</defs>
<rect width="1200" height="900" rx="44" fill="url(#bg)"/>
<g filter="url(#blur)" opacity="0.58">
<circle cx="246" cy="228" r="150" fill="#50D7FF"/>
<circle cx="970" cy="220" r="144" fill="#2F7EFF"/>
<circle cx="874" cy="744" r="182" fill="#16D2AE"/>
</g>
<rect x="142" y="152" width="916" height="596" rx="34" fill="#F3FBFF" fill-opacity="0.08" stroke="#DDF4FF" stroke-opacity="0.15"/>
<path d="M220 638H980" stroke="#DDF4FF" stroke-opacity="0.22" stroke-width="10" stroke-linecap="round"/>
<path d="M260 598C340 522 436 484 548 484H744C834 484 908 452 972 392" stroke="#BDEFFF" stroke-width="18" stroke-linecap="round"/>
<rect x="290" y="492" width="314" height="126" rx="28" fill="#F5FBFF" fill-opacity="0.92"/>
<rect x="650" y="456" width="188" height="162" rx="28" fill="#08192E" fill-opacity="0.56" stroke="#EAF8FF" stroke-opacity="0.18"/>
<path d="M356 548H518" stroke="#0B6576" stroke-width="18" stroke-linecap="round"/>
<path d="M356 596H476" stroke="#0B6576" stroke-opacity="0.48" stroke-width="14" stroke-linecap="round"/>
<rect x="706" y="512" width="176" height="78" rx="22" fill="#F5FBFF" fill-opacity="0.9"/>
<path d="M748 544H844" stroke="#0B6576" stroke-width="16" stroke-linecap="round"/>
<circle cx="376" cy="642" r="28" fill="#08192E"/>
<circle cx="530" cy="642" r="28" fill="#08192E"/>
<circle cx="734" cy="642" r="28" fill="#08192E"/>
<circle cx="886" cy="642" r="28" fill="#08192E"/>
<rect x="250" y="264" width="178" height="132" rx="24" fill="#08192E" fill-opacity="0.52" stroke="#EAF8FF" stroke-opacity="0.16"/>
<rect x="804" y="236" width="152" height="120" rx="24" fill="#08192E" fill-opacity="0.52" stroke="#EAF8FF" stroke-opacity="0.16"/>
<path d="M300 324H376" stroke="#EAF8FF" stroke-opacity="0.75" stroke-width="16" stroke-linecap="round"/>
<path d="M836 290H920" stroke="#EAF8FF" stroke-opacity="0.75" stroke-width="16" stroke-linecap="round"/>
</svg>
