<svg width="1200" height="900" viewBox="0 0 1200 900" fill="none" xmlns="http://www.w3.org/2000/svg">
<defs>
<linearGradient id="bg" x1="90" y1="80" x2="1114" y2="822" gradientUnits="userSpaceOnUse">
<stop stop-color="#09121E"/>
<stop offset="0.48" stop-color="#17325A"/>
<stop offset="1" stop-color="#0A736D"/>
</linearGradient>
<filter id="blur" x="-150" y="-160" width="1500" height="1220" filterUnits="userSpaceOnUse">
<feGaussianBlur stdDeviation="80"/>
</filter>
</defs>
<rect width="1200" height="900" rx="44" fill="url(#bg)"/>
<g filter="url(#blur)" opacity="0.58">
<circle cx="274" cy="210" r="150" fill="#4ED7FF"/>
<circle cx="954" cy="226" r="146" fill="#2F7EFF"/>
<circle cx="846" cy="740" r="178" fill="#18D0AE"/>
</g>
<rect x="164" y="154" width="872" height="592" rx="34" fill="#F5FBFF" fill-opacity="0.08" stroke="#DDF4FF" stroke-opacity="0.16"/>
<circle cx="420" cy="450" r="150" fill="#F5FBFF" fill-opacity="0.92"/>
<path d="M420 340C359.249 340 310 389.249 310 450C310 510.751 359.249 560 420 560C480.751 560 530 510.751 530 450C530 389.249 480.751 340 420 340Z" stroke="#0A6774" stroke-width="24"/>
<path d="M350 520L490 380" stroke="#0A6774" stroke-width="24" stroke-linecap="round"/>
<path d="M770 304C847.32 304 910 366.68 910 444C910 521.32 847.32 584 770 584C692.68 584 630 521.32 630 444C630 366.68 692.68 304 770 304Z" fill="#08192E" fill-opacity="0.56" stroke="#EAF8FF" stroke-opacity="0.18"/>
<path d="M736 402H808" stroke="#EAF8FF" stroke-opacity="0.85" stroke-width="18" stroke-linecap="round"/>
<path d="M706 460H836" stroke="#EAF8FF" stroke-opacity="0.42" stroke-width="14" stroke-linecap="round"/>
<rect x="292" y="646" width="616" height="62" rx="20" fill="#08192E" fill-opacity="0.46" stroke="#EAF8FF" stroke-opacity="0.14"/>
<path d="M346 678H694" stroke="#EAF8FF" stroke-opacity="0.72" stroke-width="18" stroke-linecap="round"/>
</svg>
