<svg width="1200" height="900" viewBox="0 0 1200 900" fill="none" xmlns="http://www.w3.org/2000/svg">
<defs>
<linearGradient id="bg" x1="88" y1="82" x2="1114" y2="820" gradientUnits="userSpaceOnUse">
<stop stop-color="#08111E"/>
<stop offset="0.48" stop-color="#17345C"/>
<stop offset="1" stop-color="#0A776C"/>
</linearGradient>
<filter id="blur" x="-150" y="-150" width="1500" height="1200" filterUnits="userSpaceOnUse">
<feGaussianBlur stdDeviation="78"/>
</filter>
</defs>
<rect width="1200" height="900" rx="44" fill="url(#bg)"/>
<g filter="url(#blur)" opacity="0.58">
<circle cx="250" cy="210" r="148" fill="#4FD8FF"/>
<circle cx="958" cy="236" r="148" fill="#2E7FFF"/>
<circle cx="882" cy="742" r="182" fill="#1AD1AE"/>
</g>
<rect x="150" y="148" width="900" height="604" rx="34" fill="#F5FBFF" fill-opacity="0.08" stroke="#EAF8FF" stroke-opacity="0.15"/>
<circle cx="362" cy="450" r="74" fill="#F5FBFF" fill-opacity="0.92"/>
<circle cx="600" cy="276" r="74" fill="#F5FBFF" fill-opacity="0.92"/>
<circle cx="600" cy="624" r="74" fill="#F5FBFF" fill-opacity="0.92"/>
<circle cx="838" cy="450" r="74" fill="#F5FBFF" fill-opacity="0.92"/>
<path d="M426 408L536 318" stroke="#BDEFFF" stroke-width="18" stroke-linecap="round"/>
<path d="M664 318L774 408" stroke="#BDEFFF" stroke-width="18" stroke-linecap="round"/>
<path d="M426 492L536 582" stroke="#BDEFFF" stroke-width="18" stroke-linecap="round"/>
<path d="M664 582L774 492" stroke="#BDEFFF" stroke-width="18" stroke-linecap="round"/>
<path d="M420 450H780" stroke="#BDEFFF" stroke-opacity="0.22" stroke-width="10" stroke-linecap="round"/>
<path d="M330 450H394" stroke="#0B6574" stroke-width="18" stroke-linecap="round"/>
<path d="M568 276H632" stroke="#0B6574" stroke-width="18" stroke-linecap="round"/>
<path d="M568 624H632" stroke="#0B6574" stroke-width="18" stroke-linecap="round"/>
<path d="M806 450H870" stroke="#0B6574" stroke-width="18" stroke-linecap="round"/>
</svg>
