<svg width="1200" height="900" viewBox="0 0 1200 900" fill="none" xmlns="http://www.w3.org/2000/svg">
<defs>
<linearGradient id="bg" x1="116" y1="84" x2="1090" y2="824" gradientUnits="userSpaceOnUse">
<stop stop-color="#130A24"/>
<stop offset="0.55" stop-color="#331E63"/>
<stop offset="1" stop-color="#006B7A"/>
</linearGradient>
<linearGradient id="panel" x1="240" y1="214" x2="968" y2="720" gradientUnits="userSpaceOnUse">
<stop stop-color="#FFFFFF" stop-opacity="0.92"/>
<stop offset="1" stop-color="#C4F1F4" stop-opacity="0.12"/>
</linearGradient>
<filter id="blur" x="-120" y="-120" width="1440" height="1140" filterUnits="userSpaceOnUse">
<feGaussianBlur stdDeviation="72"/>
</filter>
</defs>
<rect width="1200" height="900" rx="44" fill="url(#bg)"/>
<g filter="url(#blur)" opacity="0.55">
<circle cx="980" cy="160" r="130" fill="#49E3C2"/>
<circle cx="222" cy="716" r="170" fill="#2F86FF"/>
<circle cx="910" cy="736" r="164" fill="#7B61FF"/>
</g>
<rect x="146" y="148" width="908" height="604" rx="32" fill="url(#panel)" fill-opacity="0.11" stroke="#EAF8FF" stroke-opacity="0.16"/>
<rect x="208" y="212" width="452" height="476" rx="28" fill="#08172B" fill-opacity="0.56" stroke="#EAF8FF" stroke-opacity="0.18"/>
<rect x="700" y="212" width="292" height="186" rx="24" fill="#08172B" fill-opacity="0.46" stroke="#EAF8FF" stroke-opacity="0.18"/>
<rect x="700" y="430" width="292" height="258" rx="24" fill="#08172B" fill-opacity="0.46" stroke="#EAF8FF" stroke-opacity="0.18"/>
<path d="M294 318L398 240L502 318" stroke="#84F7D8" stroke-width="18" stroke-linecap="round" stroke-linejoin="round"/>
<path d="M294 580L398 658L502 580" stroke="#84F7D8" stroke-width="18" stroke-linecap="round" stroke-linejoin="round"/>
<path d="M572 270H714" stroke="#DDF4FF" stroke-opacity="0.92" stroke-width="18" stroke-linecap="round"/>
<path d="M572 330H658" stroke="#DDF4FF" stroke-opacity="0.48" stroke-width="14" stroke-linecap="round"/>
<rect x="292" y="352" width="284" height="176" rx="26" fill="#F5FBFF" fill-opacity="0.9"/>
<path d="M344 422H524" stroke="#0C5E74" stroke-width="18" stroke-linecap="round"/>
<path d="M344 466H468" stroke="#0C5E74" stroke-opacity="0.6" stroke-width="14" stroke-linecap="round"/>
<path d="M752 508H920" stroke="#DDF4FF" stroke-opacity="0.85" stroke-width="18" stroke-linecap="round"/>
<path d="M752 564H882" stroke="#DDF4FF" stroke-opacity="0.46" stroke-width="14" stroke-linecap="round"/>
<circle cx="786" cy="300" r="22" fill="#84F7D8"/>
<circle cx="848" cy="300" r="22" fill="#84F7D8" fill-opacity="0.55"/>
<circle cx="910" cy="300" r="22" fill="#84F7D8" fill-opacity="0.22"/>
<path d="M750 620C750 588.52 775.52 563 807 563H930C961.48 563 987 588.52 987 620V620C987 651.48 961.48 677 930 677H807C775.52 677 750 651.48 750 620V620Z" fill="#DDF4FF" fill-opacity="0.1" stroke="#DDF4FF" stroke-opacity="0.2"/>
</svg>
