<svg width="1200" height="900" viewBox="0 0 1200 900" fill="none" xmlns="http://www.w3.org/2000/svg">
<defs>
<linearGradient id="bg" x1="90" y1="80" x2="1120" y2="820" gradientUnits="userSpaceOnUse">
<stop stop-color="#07111F"/>
<stop offset="0.5" stop-color="#113256"/>
<stop offset="1" stop-color="#0A6B7E"/>
</linearGradient>
<linearGradient id="card" x1="220" y1="220" x2="980" y2="720" gradientUnits="userSpaceOnUse">
<stop stop-color="#EFF8FF" stop-opacity="0.95"/>
<stop offset="1" stop-color="#B2E5FF" stop-opacity="0.18"/>
</linearGradient>
<filter id="blur" x="-200" y="-200" width="1600" height="1300" filterUnits="userSpaceOnUse">
<feGaussianBlur stdDeviation="72"/>
</filter>
</defs>
<rect width="1200" height="900" rx="44" fill="url(#bg)"/>
<g filter="url(#blur)" opacity="0.55">
<circle cx="264" cy="190" r="130" fill="#50D2FF"/>
<circle cx="972" cy="244" r="150" fill="#1B7FFF"/>
<circle cx="878" cy="748" r="164" fill="#32E0C4"/>
</g>
<rect x="140" y="148" width="920" height="604" rx="32" fill="url(#card)" fill-opacity="0.12" stroke="#D9F2FF" stroke-opacity="0.18"/>
<rect x="208" y="220" width="360" height="192" rx="24" fill="#091C33" fill-opacity="0.62" stroke="#D9F2FF" stroke-opacity="0.2"/>
<rect x="632" y="220" width="360" height="112" rx="24" fill="#091C33" fill-opacity="0.52" stroke="#D9F2FF" stroke-opacity="0.18"/>
<rect x="632" y="364" width="360" height="292" rx="24" fill="#091C33" fill-opacity="0.46" stroke="#D9F2FF" stroke-opacity="0.18"/>
<path d="M356 448C289.726 448 236 394.274 236 328C236 261.726 289.726 208 356 208C409.695 208 455.153 243.291 470.403 292.029C478.739 289.412 487.608 288 496.8 288C545.729 288 585.4 327.671 585.4 376.6C585.4 425.529 545.729 465.2 496.8 465.2H356V448Z" fill="#DDF4FF" fill-opacity="0.95"/>
<path d="M282 300H445" stroke="#0A6B7E" stroke-width="18" stroke-linecap="round"/>
<path d="M294 344H415" stroke="#0A6B7E" stroke-opacity="0.75" stroke-width="14" stroke-linecap="round"/>
<path d="M682 284H834" stroke="#C7F1FF" stroke-opacity="0.9" stroke-width="20" stroke-linecap="round"/>
<path d="M682 428H928" stroke="#C7F1FF" stroke-opacity="0.6" stroke-width="18" stroke-linecap="round"/>
<path d="M682 490H904" stroke="#C7F1FF" stroke-opacity="0.35" stroke-width="14" stroke-linecap="round"/>
<path d="M682 548H852" stroke="#C7F1FF" stroke-opacity="0.25" stroke-width="14" stroke-linecap="round"/>
<path d="M330 604C330 570.863 356.863 544 390 544H644C677.137 544 704 570.863 704 604V604C704 637.137 677.137 664 644 664H390C356.863 664 330 637.137 330 604V604Z" fill="#DDF4FF" fill-opacity="0.1" stroke="#DDF4FF" stroke-opacity="0.2"/>
<path d="M390 604H644" stroke="#DDF4FF" stroke-opacity="0.55" stroke-width="16" stroke-linecap="round"/>
<circle cx="758" cy="712" r="10" fill="#DDF4FF"/>
<circle cx="802" cy="712" r="10" fill="#DDF4FF" fill-opacity="0.55"/>
<circle cx="846" cy="712" r="10" fill="#DDF4FF" fill-opacity="0.25"/>
</svg>
