<svg width="1200" height="900" viewBox="0 0 1200 900" fill="none" xmlns="http://www.w3.org/2000/svg">
<defs>
<linearGradient id="bg" x1="100" y1="80" x2="1100" y2="820" gradientUnits="userSpaceOnUse">
<stop stop-color="#0A1223"/>
<stop offset="0.5" stop-color="#1D2E59"/>
<stop offset="1" stop-color="#00737D"/>
</linearGradient>
<filter id="blur" x="-150" y="-150" width="1500" height="1200" filterUnits="userSpaceOnUse">
<feGaussianBlur stdDeviation="78"/>
</filter>
</defs>
<rect width="1200" height="900" rx="44" fill="url(#bg)"/>
<g filter="url(#blur)" opacity="0.56">
<circle cx="278" cy="182" r="140" fill="#4CD8FF"/>
<circle cx="934" cy="222" r="144" fill="#7488FF"/>
<circle cx="882" cy="736" r="176" fill="#14D4B1"/>
</g>
<rect x="142" y="152" width="916" height="596" rx="34" fill="#F4FBFF" fill-opacity="0.08" stroke="#EAF8FF" stroke-opacity="0.16"/>
<rect x="224" y="224" width="488" height="328" rx="28" fill="#08172B" fill-opacity="0.56" stroke="#EAF8FF" stroke-opacity="0.18"/>
<rect x="768" y="248" width="188" height="228" rx="26" fill="#F4FBFF" fill-opacity="0.9"/>
<rect x="260" y="262" width="416" height="252" rx="18" fill="#F4FBFF" fill-opacity="0.88"/>
<path d="M312 324H528" stroke="#0D6076" stroke-width="18" stroke-linecap="round"/>
<path d="M312 380H602" stroke="#0D6076" stroke-opacity="0.56" stroke-width="14" stroke-linecap="round"/>
<path d="M312 432H560" stroke="#0D6076" stroke-opacity="0.32" stroke-width="14" stroke-linecap="round"/>
<path d="M802 308H922" stroke="#0D6076" stroke-width="16" stroke-linecap="round"/>
<path d="M802 356H892" stroke="#0D6076" stroke-opacity="0.52" stroke-width="12" stroke-linecap="round"/>
<circle cx="862" cy="432" r="22" fill="#14D4B1"/>
<rect x="308" y="618" width="584" height="80" rx="24" fill="#08172B" fill-opacity="0.46" stroke="#EAF8FF" stroke-opacity="0.16"/>
<path d="M364 658H708" stroke="#EAF8FF" stroke-opacity="0.72" stroke-width="18" stroke-linecap="round"/>
<circle cx="772" cy="658" r="14" fill="#EAF8FF"/>
<circle cx="820" cy="658" r="14" fill="#EAF8FF" fill-opacity="0.45"/>
</svg>
