<svg width="1200" height="900" viewBox="0 0 1200 900" fill="none" xmlns="http://www.w3.org/2000/svg">
<defs>
<linearGradient id="bg" x1="92" y1="82" x2="1110" y2="820" gradientUnits="userSpaceOnUse">
<stop stop-color="#08111F"/>
<stop offset="0.48" stop-color="#1A3362"/>
<stop offset="1" stop-color="#0A736D"/>
</linearGradient>
<filter id="blur" x="-140" y="-150" width="1480" height="1200" filterUnits="userSpaceOnUse">
<feGaussianBlur stdDeviation="76"/>
</filter>
</defs>
<rect width="1200" height="900" rx="44" fill="url(#bg)"/>
<g filter="url(#blur)" opacity="0.58">
<circle cx="266" cy="188" r="144" fill="#52D8FF"/>
<circle cx="954" cy="232" r="148" fill="#6A78FF"/>
<circle cx="866" cy="744" r="178" fill="#17D1AE"/>
</g>
<rect x="192" y="174" width="340" height="552" rx="40" fill="#081A2E" fill-opacity="0.58" stroke="#EAF8FF" stroke-opacity="0.16"/>
<rect x="668" y="216" width="260" height="470" rx="34" fill="#F5FBFF" fill-opacity="0.92"/>
<rect x="250" y="250" width="224" height="392" rx="28" fill="#F5FBFF" fill-opacity="0.9"/>
<path d="M300 330H424" stroke="#0B6574" stroke-width="18" stroke-linecap="round"/>
<path d="M300 382H404" stroke="#0B6574" stroke-opacity="0.48" stroke-width="14" stroke-linecap="round"/>
<rect x="300" y="440" width="124" height="124" rx="26" fill="#0B6574" fill-opacity="0.12"/>
<circle cx="362" cy="610" r="18" fill="#0B6574" fill-opacity="0.3"/>
<path d="M716 316H880" stroke="#0B6574" stroke-width="18" stroke-linecap="round"/>
<path d="M716 372H838" stroke="#0B6574" stroke-opacity="0.46" stroke-width="14" stroke-linecap="round"/>
<rect x="716" y="432" width="164" height="160" rx="28" fill="#0B6574" fill-opacity="0.1"/>
</svg>
