<svg width="1200" height="900" viewBox="0 0 1200 900" fill="none" xmlns="http://www.w3.org/2000/svg">
<defs>
<linearGradient id="bg" x1="84" y1="84" x2="1116" y2="820" gradientUnits="userSpaceOnUse">
<stop stop-color="#08131F"/>
<stop offset="0.44" stop-color="#1A315C"/>
<stop offset="1" stop-color="#0D7C70"/>
</linearGradient>
<filter id="blur" x="-140" y="-140" width="1480" height="1180" filterUnits="userSpaceOnUse">
<feGaussianBlur stdDeviation="78"/>
</filter>
</defs>
<rect width="1200" height="900" rx="44" fill="url(#bg)"/>
<g filter="url(#blur)" opacity="0.58">
<circle cx="252" cy="246" r="150" fill="#42D4FF"/>
<circle cx="956" cy="206" r="150" fill="#4A78FF"/>
<circle cx="862" cy="734" r="184" fill="#18D1A9"/>
</g>
<rect x="158" y="148" width="884" height="604" rx="34" fill="#F2FBFF" fill-opacity="0.08" stroke="#DDF4FF" stroke-opacity="0.16"/>
<rect x="232" y="232" width="276" height="420" rx="28" fill="#08182C" fill-opacity="0.56" stroke="#DDF4FF" stroke-opacity="0.18"/>
<rect x="538" y="196" width="430" height="492" rx="30" fill="#F5FBFF" fill-opacity="0.9"/>
<path d="M316 320H424" stroke="#DDF4FF" stroke-opacity="0.74" stroke-width="18" stroke-linecap="round"/>
<path d="M294 390H442" stroke="#DDF4FF" stroke-opacity="0.36" stroke-width="14" stroke-linecap="round"/>
<path d="M294 446H396" stroke="#DDF4FF" stroke-opacity="0.22" stroke-width="14" stroke-linecap="round"/>
<rect x="604" y="274" width="298" height="184" rx="28" fill="#0B6176" fill-opacity="0.1"/>
<path d="M648 348H848" stroke="#0B6176" stroke-width="18" stroke-linecap="round"/>
<path d="M648 404H792" stroke="#0B6176" stroke-opacity="0.48" stroke-width="14" stroke-linecap="round"/>
<path d="M454 428H560" stroke="#BDF2FF" stroke-width="18" stroke-linecap="round"/>
<path d="M432 510H560" stroke="#BDF2FF" stroke-width="18" stroke-linecap="round"/>
<path d="M410 592H560" stroke="#BDF2FF" stroke-width="18" stroke-linecap="round"/>
<path d="M666 558H860" stroke="#0B6176" stroke-width="18" stroke-linecap="round"/>
<path d="M666 612H814" stroke="#0B6176" stroke-opacity="0.42" stroke-width="14" stroke-linecap="round"/>
<circle cx="454" cy="428" r="16" fill="#18D1A9"/>
<circle cx="432" cy="510" r="16" fill="#18D1A9" fill-opacity="0.7"/>
<circle cx="410" cy="592" r="16" fill="#18D1A9" fill-opacity="0.45"/>
</svg>
