<svg width="1200" height="900" viewBox="0 0 1200 900" fill="none" xmlns="http://www.w3.org/2000/svg">
<defs>
<linearGradient id="bg" x1="90" y1="84" x2="1112" y2="820" gradientUnits="userSpaceOnUse">
<stop stop-color="#07111F"/>
<stop offset="0.48" stop-color="#14314F"/>
<stop offset="1" stop-color="#145F77"/>
</linearGradient>
<filter id="blur" x="-140" y="-140" width="1480" height="1180" filterUnits="userSpaceOnUse">
<feGaussianBlur stdDeviation="74"/>
</filter>
</defs>
<rect width="1200" height="900" rx="44" fill="url(#bg)"/>
<g filter="url(#blur)" opacity="0.56">
<circle cx="272" cy="206" r="144" fill="#52D7FF"/>
<circle cx="940" cy="220" r="148" fill="#1E96FF"/>
<circle cx="854" cy="734" r="180" fill="#16D3B1"/>
</g>
<rect x="156" y="150" width="888" height="600" rx="34" fill="#F4FBFF" fill-opacity="0.08" stroke="#DDF4FF" stroke-opacity="0.16"/>
<circle cx="600" cy="270" r="74" fill="#F2FBFF" fill-opacity="0.94"/>
<circle cx="382" cy="500" r="62" fill="#F2FBFF" fill-opacity="0.88"/>
<circle cx="814" cy="500" r="62" fill="#F2FBFF" fill-opacity="0.88"/>
<circle cx="266" cy="666" r="46" fill="#F2FBFF" fill-opacity="0.78"/>
<circle cx="600" cy="666" r="46" fill="#F2FBFF" fill-opacity="0.78"/>
<circle cx="934" cy="666" r="46" fill="#F2FBFF" fill-opacity="0.78"/>
<path d="M556 332L418 438" stroke="#BDF2FF" stroke-width="16" stroke-linecap="round"/>
<path d="M644 332L782 438" stroke="#BDF2FF" stroke-width="16" stroke-linecap="round"/>
<path d="M382 562L266 630" stroke="#BDF2FF" stroke-width="14" stroke-linecap="round"/>
<path d="M382 562L600 630" stroke="#BDF2FF" stroke-width="14" stroke-linecap="round"/>
<path d="M814 562L600 630" stroke="#BDF2FF" stroke-width="14" stroke-linecap="round"/>
<path d="M814 562L934 630" stroke="#BDF2FF" stroke-width="14" stroke-linecap="round"/>
<circle cx="600" cy="270" r="116" stroke="#DDF4FF" stroke-opacity="0.2" stroke-width="2"/>
<circle cx="382" cy="500" r="98" stroke="#DDF4FF" stroke-opacity="0.16" stroke-width="2"/>
<circle cx="814" cy="500" r="98" stroke="#DDF4FF" stroke-opacity="0.16" stroke-width="2"/>
</svg>
